HIERARCHY
ROOT Hips
{
  OFFSET 35.4308 103.371 -201.385
  CHANNELS 6 Xposition Yposition Zposition Zrotation Xrotation Yrotation
  JOINT RightUpLeg
  {
    OFFSET -8.9458 -8.66707 0.101652
    CHANNELS 3 Zrotation Xrotation Yrotation
    JOINT RightLeg
    {
      OFFSET 0 -44.4227 1.3727
      CHANNELS 3 Zrotation Xrotation Yrotation
      JOINT RightFoot
      {
        OFFSET 0.253549 -42.0924 -1.46059
        CHANNELS 3 Zrotation Xrotation Yrotation
        JOINT RightToes
        {
          OFFSET 0.04 -4.41509 8.4991
          CHANNELS 3 Zrotation Xrotation Yrotation
          End Site
          {
            OFFSET -0.08 -0.137448 9.77979
          }
        }
      }
    }
  }
  JOINT Spine
  {
    OFFSET 0 11.8905 0
    CHANNELS 3 Zrotation Xrotation Yrotation
    JOINT Spine1
    {
      OFFSET 0 25.6574 0.127663
      CHANNELS 3 Zrotation Xrotation Yrotation
      JOINT HEad
      {
        OFFSET 0 8.73416 0.011341
        CHANNELS 3 Zrotation Xrotation Yrotation
        End Site
        {
          OFFSET -0.29 12.7742 2.51395
        }
      }
      JOINT LeftShoulder1
      {
        OFFSET 8.99 -0.362252 -0.22
        CHANNELS 3 Zrotation Xrotation Yrotation
        JOINT LeftArm
        {
          OFFSET 10.2827 -0.00338 0.322123
          CHANNELS 3 Zrotation Xrotation Yrotation
          JOINT LeftForeArm
          {
            OFFSET 32.7669 0.099144 -1.42434
            CHANNELS 3 Zrotation Xrotation Yrotation
            JOINT LeftHand
            {
              OFFSET 27.5643 0.085362 1.02216
              CHANNELS 3 Zrotation Xrotation Yrotation
              End Site
              {
                OFFSET 16.7443 -0.6 1.50291
              }
            }
          }
        }
      }
      JOINT RightShoulder
      {
        OFFSET -8.99 -0.362252 -0.22
        CHANNELS 3 Zrotation Xrotation Yrotation
        JOINT RightArm
        {
          OFFSET -10.2827 -0.00338 0.322123
          CHANNELS 3 Zrotation Xrotation Yrotation
          JOINT RightForeArm
          {
            OFFSET -32.8971 0.099144 -1.42434
            CHANNELS 3 Zrotation Xrotation Yrotation
            JOINT RightHand
            {
              OFFSET -27.4921 0.085362 1.02216
              CHANNELS 3 Zrotation Xrotation Yrotation
              End Site
              {
                OFFSET -16.6312 -0.6 1.50291
              }
            }
          }
        }
      }
    }
  }
  JOINT LeftUpLeg
  {
    OFFSET 8.9458 -8.66707 0.101652
    CHANNELS 3 Zrotation Xrotation Yrotation
    JOINT LeftLeg
    {
      OFFSET 0 -44.4227 1.3727
      CHANNELS 3 Zrotation Xrotation Yrotation
      JOINT LeftFoot
      {
        OFFSET -0.253549 -42.0924 -1.46059
        CHANNELS 3 Zrotation Xrotation Yrotation
        JOINT LeftToes
        {
          OFFSET -0.04 -4.41509 8.4991
          CHANNELS 3 Zrotation Xrotation Yrotation
          End Site
          {
            OFFSET 0.08 -0.047448 9.77979
          }
        }
      }
    }
  }
}
MOTION
Frames:	21
Frame Time:	0.0166667
11.905 100.998 -18.8093 -2.48068 -0.802961 -2.20415 9.24527 -22.1621 10.2427 1.87331 19.9292 -12.224 -1.87402 4.69504 -0.0429369 -1.22435 -8.48996 -9.5229 -1.32405 2.32775 0.394303 2.19014 -6.88875 0.0559522 -0.36634 5.06908 0.535345 -9.93923e-017 -1.59028e-015 -0 -100.015 -19.3242 -21.5246 -11.0508 14.1231 -13.9151 0.368473 9.90896 -0.00117926 9.9319 -0.167851 -4.47089 66.6402 -37.2152 -10.993 20.2985 13.2336 7.36915 -0.369625 9.91382 0.00119887 -1.89286 10.9376 5.47253 -0.00484028 36.7413 3.1631 -3.87161 -10.9934 -0.222016 -1.3361 1.47022 -10.5249 
11.5805 101.357 -16.6979 -2.62235 -0.922538 -2.27387 9.56348 -20.7094 9.33785 1.66854 20.1772 -11.1771 -2.18138 3.49994 -0.0474295 -1.22927 -8.59087 -10.4419 -1.33478 2.30935 0.394622 1.98638 -6.85269 0.0474758 0.0824127 4.97169 0.3288 3.97569e-016 0 -0 -99.6883 -20.8818 -19.6494 -10.6016 14.0673 -13.7285 0.368473 9.90896 -0.00117926 10.6347 -0.211682 -4.68637 67.0294 -36.728 -9.45539 20.3257 13.2159 7.28751 -0.369625 9.91382 0.00119887 -0.92319 9.64159 6.85985 0.184774 39.7947 4.02224 -5.43443 -7.67375 -0.188365 -1.02276 8.54003 -14.833 
11.2372 101.697 -14.751 -2.80723 -0.915921 -2.11578 9.87888 -19.2755 9.60377 1.85308 19.9799 -11.6119 -2.79073 2.28677 -0.0515179 -1.08596 -8.13395 -10.7004 -1.11715 2.41984 0.340518 1.68579 -6.93073 0.0333148 0.597686 4.91312 -0.0874626 2.23633e-016 7.95139e-016 -0 -99.2067 -22.4184 -17.8985 -10.2994 14.0095 -13.3992 0.368473 9.90896 -0.00117926 11.1634 -0.243874 -4.83072 67.5514 -36.1372 -8.35186 20.4905 13.325 7.95003 -0.369625 9.91382 0.00119887 0.454426 7.51873 9.42998 1.44513 43.2428 2.9402 -6.22413 -2.52747 0.0594333 -0.448747 14.6864 -18.8692 
10.9006 102.011 -12.9404 -3.02522 -0.82888 -1.75186 10.1341 -17.9349 10.0931 2.12597 19.5682 -12.5347 -3.21698 1.11603 -0.0658676 -0.872901 -7.41855 -10.7407 -0.755241 2.57797 0.251179 1.34837 -6.96842 0.0158388 1.16393 4.74426 -0.647514 2.98177e-016 0 -0 -98.6229 -23.8142 -16.3316 -10.1056 13.9513 -12.956 0.368473 9.90896 -0.00117926 11.5912 -0.264249 -4.91217 68.2423 -35.48 -7.29794 20.6904 13.4962 8.95993 -0.369625 9.91382 0.00119887 2.00252 4.85682 11.5637 3.04164 47.0963 1.31457 -6.65012 2.35311 0.333973 0.196856 18.5111 -21.225 
10.5979 102.274 -11.285 -3.35419 -0.620801 -1.13363 10.4251 -16.9231 10.1767 2.32419 19.2223 -13.3587 -2.77368 -0.0162359 -0.108756 -0.537806 -6.3035 -10.8822 -0.2247 2.74392 0.135931 1.09104 -6.89906 -0.00102244 1.77343 4.32125 -1.31066 8.69683e-017 0 3.97569e-016 -98.0237 -24.8505 -15.0957 -10.0253 13.887 -12.3257 0.368473 9.90896 -0.00117926 11.9997 -0.269488 -4.91804 69.0045 -34.7693 -6.12742 20.8834 13.708 10.1499 -0.369625 9.91382 0.00119887 3.18045 1.72141 11.6509 4.00118 51.5403 -0.0104706 -6.77862 5.11296 0.48884 -0.132271 17.1923 -18.637 
10.3292 102.467 -9.71992 -3.67845 -0.422791 -0.466538 10.678 -16.0441 9.95779 2.46303 19.0156 -13.8932 -2.29989 -1.09655 -0.155688 -0.283957 -5.48419 -11.0524 0.319593 2.90856 0.0278924 0.948303 -6.66775 -0.014514 2.22804 3.73587 -1.98019 1.05604e-016 0 -9.93923e-017 -97.5467 -25.8592 -14.1527 -10.0279 13.816 -11.5697 0.368473 9.90896 -0.00117926 12.0511 -0.249568 -4.80507 70.2338 -34.0312 -4.62338 20.9638 13.8998 11.2305 -0.369625 9.91382 0.00119887 4.03749 -1.62488 10.7444 4.63978 56.1483 -0.305205 -6.63533 6.08226 0.544066 -0.490276 14.2047 -14.9436 
10.1081 102.541 -8.19082 -3.87681 -0.385449 0.0678005 10.8217 -15.1772 9.20229 2.50837 19.1952 -13.5752 -2.62312 -2.11618 -0.183168 -0.377756 -5.85451 -11.3095 0.68331 3.05131 -0.0259838 1.03496 -6.11404 -0.0185187 2.27389 2.94656 -2.5829 6.80022e-016 0 -9.31803e-018 -97.4251 -27.1156 -13.6392 -10.0704 13.7317 -10.677 0.368473 9.90896 -0.00117926 11.2895 -0.189931 -4.53438 72.4651 -33.2757 -2.41777 20.7917 14.0089 11.8274 -0.369625 9.91382 0.00119887 4.57952 -4.86831 9.13389 3.72701 60.6717 3.13355 -6.29325 4.34586 0.429215 -0.574691 12.8889 -13.4363 
9.92102 102.561 -6.68473 -4.01443 -0.410615 0.446826 10.9574 -14.3215 8.30119 2.46787 19.5266 -12.9418 -3.08505 -3.06482 -0.206478 -0.611224 -6.67066 -11.5635 1.00674 3.16668 -0.0577532 1.22676 -5.48792 -0.0192301 2.0949 2.21102 -3.01025 6.95746e-016 0 -1.49089e-016 -97.3653 -28.5904 -13.1689 -10.1956 13.6473 -9.79177 0.368473 9.90896 -0.00117926 10.1477 -0.100654 -4.08013 75.1145 -32.4899 0.167537 20.4698 14.0509 12.019 -0.369625 9.91382 0.00119887 4.75254 -8.03817 7.33559 1.40871 64.5338 8.25292 -5.76509 1.7846 0.268748 -0.688012 11.5214 -12.1631 
9.76148 102.58 -5.16545 -4.13458 -0.451491 0.559234 11.1585 -13.4284 7.53036 2.30963 19.8331 -12.2837 -3.27573 -3.94039 -0.236131 -0.812826 -7.37509 -11.7874 1.37226 3.23917 -0.0768538 1.4765 -5.01011 -0.0206357 1.77828 1.79868 -3.1007 -1.42876e-016 0 -0 -97.0935 -30.3916 -12.3565 -10.4439 13.5744 -9.02389 0.368473 9.90896 -0.00117926 8.87466 0.0217056 -3.35393 77.797 -31.7049 2.9384 20.0421 14.0067 11.7192 -0.369625 9.91382 0.00119887 4.72869 -11.0393 6.1193 0.0387826 67.3009 11.5144 -5.05374 0.390745 0.177544 -0.772486 9.23846 -10.1853 
9.62229 102.584 -3.64846 -4.1933 -0.504417 0.48952 11.3533 -12.5495 6.98002 2.12227 20.1874 -11.7779 -3.28002 -4.70942 -0.262927 -1.0993 -8.3114 -11.8489 1.76014 3.27829 -0.10422 1.66808 -4.60799 -0.023203 1.41544 1.63 -2.93997 1.56854e-016 3.97569e-016 -0 -96.6067 -32.3803 -11.2551 -10.7866 13.5206 -8.46421 0.368473 9.90896 -0.00117926 7.56264 0.151282 -2.50453 80.519 -30.8484 5.91486 19.5267 13.9048 11.0522 -0.369625 9.91382 0.00119887 4.50335 -13.8343 5.04261 -1.04853 69.2275 13.8605 -4.19964 -1.0845 0.105224 -0.766339 6.49071 -8.02447 
9.48769 102.577 -2.14314 -4.15703 -0.545476 0.276363 11.4908 -11.7777 6.96831 2.00865 20.6662 -11.9481 -2.86483 -5.21246 -0.273048 -1.64269 -10.0099 -11.1664 2.21413 3.28219 -0.182117 1.60548 -4.288 -0.0300634 1.16931 1.76573 -2.53083 1.21329e-018 -1.98785e-016 -0 -95.7291 -34.4631 -9.71295 -11.2293 13.5049 -8.31112 0.368473 9.90896 -0.00117926 6.47811 0.263046 -1.65631 83.1101 -29.8356 9.11188 18.9676 13.7514 10.0284 -0.369625 9.91382 0.00119887 4.05581 -16.3449 3.94785 -2.14956 70.3524 15.135 -3.14521 -3.48046 0.0358257 -0.68157 3.23338 -5.74855 
9.3769 102.564 -0.631443 -4.03883 -0.588558 -0.0540917 11.5278 -10.9503 7.0751 1.92585 21.0859 -12.0565 -2.57256 -5.82545 -0.290678 -2.0448 -11.3647 -11.0643 2.62653 3.2695 -0.256008 1.48142 -4.0336 -0.0371964 0.871112 2.05562 -1.9596 3.10601e-018 -1.98785e-016 -9.93923e-017 -94.6481 -36.5842 -7.89949 -11.712 13.508 -8.35142 0.368473 9.90896 -0.00117926 5.35692 0.357173 -0.79382 85.6734 -28.7562 12.3301 18.3219 13.5854 8.90497 -0.369625 9.91382 0.00119887 3.44853 -18.6167 2.74521 -3.04138 70.689 15.8928 -2.20882 -6.03345 -0.0173319 -0.448168 0.175481 -3.67815 
9.30924 102.549 0.907802 -3.82925 -0.646127 -0.463573 11.4139 -9.88028 6.93426 1.86425 21.2692 -11.2793 -3.08645 -7.13403 -0.348636 -1.84395 -10.7429 -13.5343 2.88649 3.26753 -0.277687 1.44776 -3.83463 -0.0409104 0.366474 2.3918 -1.31027 1.95679e-016 -1.98785e-016 -0 -93.5761 -38.6626 -5.9739 -12.1737 13.5147 -8.43292 0.368473 9.90896 -0.00117926 3.92757 0.421424 0.0446187 88.4233 -27.7233 15.4149 17.5136 13.4583 7.93765 -0.369625 9.91382 0.00119887 2.67599 -20.6609 1.22513 -4.06034 70.2103 17.1091 -1.78998 -8.37654 -0.0429546 -0.219577 -1.61742 -2.12188 
9.26866 102.545 2.45594 -3.56225 -0.698503 -0.949788 11.2067 -8.71944 6.72511 1.76849 21.2745 -10.3731 -3.75827 -8.34964 -0.408392 -1.60856 -10.1839 -15.9709 3.04749 3.24854 -0.270438 1.43073 -3.67846 -0.043371 -0.218211 2.70733 -0.592628 -5.28022e-017 0 3.97569e-016 -92.3987 -40.6821 -3.874 -12.6196 13.5266 -8.57184 0.368473 9.90896 -0.00117926 2.48167 0.468069 0.896016 90.9912 -26.6477 18.3191 16.7135 13.3609 7.13426 -0.369625 9.91382 0.00119887 1.81986 -22.493 -0.427642 -4.8678 68.9263 18.3621 -1.5717 -10.1587 -0.0498318 -0.0480452 -3.20137 -1.11499 
9.24664 102.577 3.99945 -3.25798 -0.73867 -1.51317 10.9297 -7.54128 6.47947 1.53378 21.0341 -10.0035 -4.09103 -8.53921 -0.428736 -2.27829 -12.0601 -15.5759 3.10321 3.18807 -0.237894 1.39973 -3.53392 -0.0455271 -0.796834 2.87978 0.169922 -3.41661e-016 3.97569e-016 -3.97569e-016 -91.0826 -42.6163 -1.5907 -13.0253 13.5399 -8.73377 0.368473 9.90896 -0.00117926 1.26936 0.507551 1.7957 93.0052 -25.4564 20.9578 16.0813 13.3006 6.57062 -0.369625 9.91382 0.00119887 0.983205 -24.1404 -2.0941 -5.25784 66.7582 19.7748 -1.33612 -10.5885 -0.0373361 0.0175448 -5.72104 -1.21527 
9.23989 102.611 5.54408 -2.94573 -0.741115 -2.10724 10.6163 -6.39571 6.26611 1.32321 20.7753 -9.63247 -4.29714 -8.72213 -0.447304 -2.85581 -13.7832 -15.0538 3.12235 3.10367 -0.190824 1.37733 -3.44658 -0.0473291 -1.3773 2.96741 0.933407 2.48481e-017 0 3.97569e-016 -89.6298 -44.4098 0.858788 -13.4186 13.5554 -8.9183 0.368473 9.90896 -0.00117926 0.14099 0.533194 2.71039 94.6616 -24.2547 23.2883 15.5754 13.2829 6.298 -0.369625 9.91382 0.00119887 0.180848 -25.5948 -3.74825 -5.1873 63.9554 20.7777 -1.19213 -10.6205 -0.0222219 0.0587178 -7.89127 -1.22489 
9.24082 102.616 7.09261 -2.65707 -0.667631 -2.68482 10.2935 -5.40069 6.16315 1.31008 20.8259 -8.73328 -4.39208 -9.98168 -0.500451 -2.45883 -12.5209 -16.9774 3.20203 2.99356 -0.147621 1.35852 -3.4664 -0.049655 -1.91746 2.99046 1.65242 -2.85753e-016 -1.98785e-016 -7.95139e-016 -88.0324 -45.9899 3.45283 -13.8318 13.5734 -9.1202 0.368473 9.90896 -0.00117926 -0.973772 0.543239 3.65422 96.0446 -23.1253 25.2109 15.217 13.3206 6.43984 -0.369625 9.91382 0.00119887 -0.54506 -26.8679 -5.32008 -4.93757 60.7568 21.153 -1.14533 -11.0959 -0.0205646 0.404853 -8.53016 0.471532 
9.25384 102.61 8.64051 -2.39964 -0.549667 -3.24839 9.97226 -4.42954 6.16771 1.34184 20.8009 -7.92863 -4.48091 -11.193 -0.553373 -1.9637 -11.2485 -18.8619 3.25055 2.89128 -0.0890281 1.39539 -3.54903 -0.0506701 -2.48316 2.94165 2.30776 1.49089e-016 0 -0 -86.3827 -47.3916 6.14253 -14.2275 13.5924 -9.31952 0.368473 9.90896 -0.00117926 -2.06151 0.533575 4.52033 97.1933 -22.0469 26.8378 14.9697 13.3949 6.8569 -0.369625 9.91382 0.00119887 -1.13993 -27.9474 -6.79913 -4.46887 57.1359 21.0311 -1.29023 -11.5632 -0.0342803 0.721235 -8.46825 2.10976 
9.28748 102.603 10.1847 -2.18737 -0.410743 -3.7565 9.64729 -3.37049 6.25873 1.31634 20.3305 -7.81879 -4.72307 -11.3015 -0.574062 -2.54783 -12.763 -18.5165 3.18721 2.84036 0.00456992 1.55282 -3.66623 -0.04858 -3.17387 2.81035 2.817 2.73329e-016 1.98785e-016 1.59028e-015 -84.8101 -48.6161 8.84745 -14.5669 13.6072 -9.46477 0.368473 9.90896 -0.00117926 -3.1664 0.492544 5.15416 98.1701 -21.0082 28.2204 14.8064 13.4919 7.47481 -0.369625 9.91382 0.00119887 -1.5571 -28.8328 -8.21089 -3.81088 53.0926 20.4785 -1.8595 -11.7263 -0.0792479 0.645791 -8.21308 1.8175 
9.32184 102.585 11.7237 -2.03712 -0.236415 -4.29383 9.38899 -2.29698 6.57289 1.28563 19.7214 -7.95828 -4.95447 -11.1801 -0.585855 -3.23663 -14.6635 -17.7666 3.07586 2.80902 0.113724 1.78751 -3.8196 -0.0441385 -3.84946 2.62744 3.32453 5.46658e-016 1.98785e-016 1.59028e-015 -83.2296 -49.7211 11.6057 -14.8873 13.629 -9.64517 0.368473 9.90896 -0.00117926 -4.18579 0.44142 5.71299 98.9563 -20.0357 29.4194 14.7164 13.6052 8.22327 -0.369625 9.91382 0.00119887 -1.72298 -29.5117 -9.36668 -3.18486 48.7295 19.5528 -2.44457 -11.9603 -0.129715 0.565408 -7.61081 1.52675 
9.33446 102.541 13.2531 -1.98196 -0.00535143 -4.9831 9.2977 -1.28164 7.37434 1.26762 19.2319 -8.11939 -5.02349 -11.5109 -0.6063 -3.36882 -15.0148 -17.8147 2.97444 2.77853 0.226445 2.0844 -4.02015 -0.037435 -4.38195 2.4233 4.00353 -7.95139e-016 1.98785e-016 -7.95139e-016 -81.529 -50.7896 14.4989 -15.2379 13.6712 -9.96896 0.368473 9.90896 -0.00117926 -5.02307 0.399327 6.35271 99.5438 -19.1424 30.5251 14.6798 13.7255 9.00659 -0.369625 9.91382 0.00119887 -1.48107 -29.9625 -10.0551 -2.85451 44.112 18.0536 -2.56394 -12.8078 -0.15996 0.844101 -6.44537 3.3275 
